<mxfile host="app.diagrams.net" modified="2021-08-13T12:05:25.376Z" agent="5.0 (Windows NT 10.0; Win64; x64) AppleWebKit/537.36 (KHTML, like Gecko) Chrome/93.0.4542.2 Safari/537.36" etag="ZXD8LsAh5xaccvOWPs_N" version="14.9.6" type="github">
  <diagram id="R2lEEEUBdFMjLlhIrx00" name="Page-1">
    <mxGraphModel dx="1185" dy="588" grid="1" gridSize="10" guides="1" tooltips="1" connect="1" arrows="1" fold="1" page="1" pageScale="1" pageWidth="1654" pageHeight="2336" math="0" shadow="0" extFonts="Permanent Marker^https://fonts.googleapis.com/css?family=Permanent+Marker">
      <root>
        <mxCell id="0" />
        <mxCell id="1" parent="0" />
        <mxCell id="NXn6PCg6-Ud2dN9pKlLt-1" value="TerminalInfos(超声机信息)" style="shape=table;startSize=30;container=1;collapsible=1;childLayout=tableLayout;fixedRows=1;rowLines=0;fontStyle=1;align=center;resizeLast=1;" vertex="1" parent="1">
          <mxGeometry x="420" y="796" width="330" height="310" as="geometry" />
        </mxCell>
        <mxCell id="NXn6PCg6-Ud2dN9pKlLt-2" value="" style="shape=partialRectangle;collapsible=0;dropTarget=0;pointerEvents=0;fillColor=none;points=[[0,0.5],[1,0.5]];portConstraint=eastwest;top=0;left=0;right=0;bottom=1;" vertex="1" parent="NXn6PCg6-Ud2dN9pKlLt-1">
          <mxGeometry y="30" width="330" height="30" as="geometry" />
        </mxCell>
        <mxCell id="NXn6PCg6-Ud2dN9pKlLt-3" value="PK" style="shape=partialRectangle;overflow=hidden;connectable=0;fillColor=none;top=0;left=0;bottom=0;right=0;fontStyle=1;" vertex="1" parent="NXn6PCg6-Ud2dN9pKlLt-2">
          <mxGeometry width="30" height="30" as="geometry" />
        </mxCell>
        <mxCell id="NXn6PCg6-Ud2dN9pKlLt-4" value="Id object(id)" style="shape=partialRectangle;overflow=hidden;connectable=0;fillColor=none;top=0;left=0;bottom=0;right=0;align=left;spacingLeft=6;fontStyle=5;" vertex="1" parent="NXn6PCg6-Ud2dN9pKlLt-2">
          <mxGeometry x="30" width="300" height="30" as="geometry" />
        </mxCell>
        <mxCell id="NXn6PCg6-Ud2dN9pKlLt-71" value="" style="shape=partialRectangle;collapsible=0;dropTarget=0;pointerEvents=0;fillColor=none;points=[[0,0.5],[1,0.5]];portConstraint=eastwest;top=0;left=0;right=0;bottom=0;" vertex="1" parent="NXn6PCg6-Ud2dN9pKlLt-1">
          <mxGeometry y="60" width="330" height="30" as="geometry" />
        </mxCell>
        <mxCell id="NXn6PCg6-Ud2dN9pKlLt-72" value="" style="shape=partialRectangle;overflow=hidden;connectable=0;fillColor=none;top=0;left=0;bottom=0;right=0;" vertex="1" parent="NXn6PCg6-Ud2dN9pKlLt-71">
          <mxGeometry width="30" height="30" as="geometry" />
        </mxCell>
        <mxCell id="NXn6PCg6-Ud2dN9pKlLt-73" value="TerminalCode(string)[unique][query]" style="shape=partialRectangle;overflow=hidden;connectable=0;fillColor=none;top=0;left=0;bottom=0;right=0;align=left;spacingLeft=6;" vertex="1" parent="NXn6PCg6-Ud2dN9pKlLt-71">
          <mxGeometry x="30" width="300" height="30" as="geometry" />
        </mxCell>
        <mxCell id="NXn6PCg6-Ud2dN9pKlLt-9" value="" style="shape=partialRectangle;collapsible=0;dropTarget=0;pointerEvents=0;fillColor=none;points=[[0,0.5],[1,0.5]];portConstraint=eastwest;top=0;left=0;right=0;bottom=0;" vertex="1" parent="NXn6PCg6-Ud2dN9pKlLt-1">
          <mxGeometry y="90" width="330" height="30" as="geometry" />
        </mxCell>
        <mxCell id="NXn6PCg6-Ud2dN9pKlLt-10" value="" style="shape=partialRectangle;overflow=hidden;connectable=0;fillColor=none;top=0;left=0;bottom=0;right=0;" vertex="1" parent="NXn6PCg6-Ud2dN9pKlLt-9">
          <mxGeometry width="30" height="30" as="geometry" />
        </mxCell>
        <mxCell id="NXn6PCg6-Ud2dN9pKlLt-11" value="SerialNumber(string)[unique][query]" style="shape=partialRectangle;overflow=hidden;connectable=0;fillColor=none;top=0;left=0;bottom=0;right=0;align=left;spacingLeft=6;" vertex="1" parent="NXn6PCg6-Ud2dN9pKlLt-9">
          <mxGeometry x="30" width="300" height="30" as="geometry" />
        </mxCell>
        <mxCell id="NXn6PCg6-Ud2dN9pKlLt-5" value="" style="shape=partialRectangle;collapsible=0;dropTarget=0;pointerEvents=0;fillColor=none;points=[[0,0.5],[1,0.5]];portConstraint=eastwest;top=0;left=0;right=0;bottom=0;" vertex="1" parent="NXn6PCg6-Ud2dN9pKlLt-1">
          <mxGeometry y="120" width="330" height="30" as="geometry" />
        </mxCell>
        <mxCell id="NXn6PCg6-Ud2dN9pKlLt-6" value="" style="shape=partialRectangle;overflow=hidden;connectable=0;fillColor=none;top=0;left=0;bottom=0;right=0;" vertex="1" parent="NXn6PCg6-Ud2dN9pKlLt-5">
          <mxGeometry width="30" height="30" as="geometry" />
        </mxCell>
        <mxCell id="NXn6PCg6-Ud2dN9pKlLt-7" value="Description(string)[query]" style="shape=partialRectangle;overflow=hidden;connectable=0;fillColor=none;top=0;left=0;bottom=0;right=0;align=left;spacingLeft=6;" vertex="1" parent="NXn6PCg6-Ud2dN9pKlLt-5">
          <mxGeometry x="30" width="300" height="30" as="geometry" />
        </mxCell>
        <mxCell id="NXn6PCg6-Ud2dN9pKlLt-12" value="" style="shape=partialRectangle;collapsible=0;dropTarget=0;pointerEvents=0;fillColor=none;points=[[0,0.5],[1,0.5]];portConstraint=eastwest;top=0;left=0;right=0;bottom=0;" vertex="1" parent="NXn6PCg6-Ud2dN9pKlLt-1">
          <mxGeometry y="150" width="330" height="30" as="geometry" />
        </mxCell>
        <mxCell id="NXn6PCg6-Ud2dN9pKlLt-13" value="" style="shape=partialRectangle;overflow=hidden;connectable=0;fillColor=none;top=0;left=0;bottom=0;right=0;" vertex="1" parent="NXn6PCg6-Ud2dN9pKlLt-12">
          <mxGeometry width="30" height="30" as="geometry" />
        </mxCell>
        <mxCell id="NXn6PCg6-Ud2dN9pKlLt-14" value="Model(string)[query]" style="shape=partialRectangle;overflow=hidden;connectable=0;fillColor=none;top=0;left=0;bottom=0;right=0;align=left;spacingLeft=6;" vertex="1" parent="NXn6PCg6-Ud2dN9pKlLt-12">
          <mxGeometry x="30" width="300" height="30" as="geometry" />
        </mxCell>
        <mxCell id="NXn6PCg6-Ud2dN9pKlLt-99" value="" style="shape=partialRectangle;collapsible=0;dropTarget=0;pointerEvents=0;fillColor=none;points=[[0,0.5],[1,0.5]];portConstraint=eastwest;top=0;left=0;right=0;bottom=0;" vertex="1" parent="NXn6PCg6-Ud2dN9pKlLt-1">
          <mxGeometry y="180" width="330" height="30" as="geometry" />
        </mxCell>
        <mxCell id="NXn6PCg6-Ud2dN9pKlLt-100" value="" style="shape=partialRectangle;overflow=hidden;connectable=0;fillColor=none;top=0;left=0;bottom=0;right=0;" vertex="1" parent="NXn6PCg6-Ud2dN9pKlLt-99">
          <mxGeometry width="30" height="30" as="geometry" />
        </mxCell>
        <mxCell id="NXn6PCg6-Ud2dN9pKlLt-101" value="DeviceType(string:魔盒,超声机,其他)" style="shape=partialRectangle;overflow=hidden;connectable=0;fillColor=none;top=0;left=0;bottom=0;right=0;align=left;spacingLeft=6;" vertex="1" parent="NXn6PCg6-Ud2dN9pKlLt-99">
          <mxGeometry x="30" width="300" height="30" as="geometry" />
        </mxCell>
        <mxCell id="NXn6PCg6-Ud2dN9pKlLt-15" value="" style="shape=partialRectangle;collapsible=0;dropTarget=0;pointerEvents=0;fillColor=none;points=[[0,0.5],[1,0.5]];portConstraint=eastwest;top=0;left=0;right=0;bottom=0;" vertex="1" parent="NXn6PCg6-Ud2dN9pKlLt-1">
          <mxGeometry y="210" width="330" height="30" as="geometry" />
        </mxCell>
        <mxCell id="NXn6PCg6-Ud2dN9pKlLt-16" value="" style="shape=partialRectangle;overflow=hidden;connectable=0;fillColor=none;top=0;left=0;bottom=0;right=0;" vertex="1" parent="NXn6PCg6-Ud2dN9pKlLt-15">
          <mxGeometry width="30" height="30" as="geometry" />
        </mxCell>
        <mxCell id="NXn6PCg6-Ud2dN9pKlLt-17" value="DefaultPicUrl(string)" style="shape=partialRectangle;overflow=hidden;connectable=0;fillColor=none;top=0;left=0;bottom=0;right=0;align=left;spacingLeft=6;" vertex="1" parent="NXn6PCg6-Ud2dN9pKlLt-15">
          <mxGeometry x="30" width="300" height="30" as="geometry" />
        </mxCell>
        <mxCell id="NXn6PCg6-Ud2dN9pKlLt-18" value="" style="shape=partialRectangle;collapsible=0;dropTarget=0;pointerEvents=0;fillColor=none;points=[[0,0.5],[1,0.5]];portConstraint=eastwest;top=0;left=0;right=0;bottom=0;" vertex="1" parent="NXn6PCg6-Ud2dN9pKlLt-1">
          <mxGeometry y="240" width="330" height="30" as="geometry" />
        </mxCell>
        <mxCell id="NXn6PCg6-Ud2dN9pKlLt-19" value="" style="shape=partialRectangle;overflow=hidden;connectable=0;fillColor=none;top=0;left=0;bottom=0;right=0;" vertex="1" parent="NXn6PCg6-Ud2dN9pKlLt-18">
          <mxGeometry width="30" height="30" as="geometry" />
        </mxCell>
        <mxCell id="NXn6PCg6-Ud2dN9pKlLt-20" value="SoftwareVersion(string)" style="shape=partialRectangle;overflow=hidden;connectable=0;fillColor=none;top=0;left=0;bottom=0;right=0;align=left;spacingLeft=6;" vertex="1" parent="NXn6PCg6-Ud2dN9pKlLt-18">
          <mxGeometry x="30" width="300" height="30" as="geometry" />
        </mxCell>
        <mxCell id="NXn6PCg6-Ud2dN9pKlLt-21" value="" style="shape=partialRectangle;collapsible=0;dropTarget=0;pointerEvents=0;fillColor=none;points=[[0,0.5],[1,0.5]];portConstraint=eastwest;top=0;left=0;right=0;bottom=0;" vertex="1" parent="NXn6PCg6-Ud2dN9pKlLt-1">
          <mxGeometry y="270" width="330" height="30" as="geometry" />
        </mxCell>
        <mxCell id="NXn6PCg6-Ud2dN9pKlLt-22" value="" style="shape=partialRectangle;overflow=hidden;connectable=0;fillColor=none;top=0;left=0;bottom=0;right=0;" vertex="1" parent="NXn6PCg6-Ud2dN9pKlLt-21">
          <mxGeometry width="30" height="30" as="geometry" />
        </mxCell>
        <mxCell id="NXn6PCg6-Ud2dN9pKlLt-23" value="OrganizationCode(string)" style="shape=partialRectangle;overflow=hidden;connectable=0;fillColor=none;top=0;left=0;bottom=0;right=0;align=left;spacingLeft=6;" vertex="1" parent="NXn6PCg6-Ud2dN9pKlLt-21">
          <mxGeometry x="30" width="300" height="30" as="geometry" />
        </mxCell>
        <mxCell id="NXn6PCg6-Ud2dN9pKlLt-24" value="Regions(国家地区)" style="shape=table;startSize=30;container=1;collapsible=1;childLayout=tableLayout;fixedRows=1;rowLines=0;fontStyle=1;align=center;resizeLast=1;" vertex="1" parent="1">
          <mxGeometry x="50" y="20" width="330" height="220" as="geometry" />
        </mxCell>
        <mxCell id="NXn6PCg6-Ud2dN9pKlLt-25" value="" style="shape=partialRectangle;collapsible=0;dropTarget=0;pointerEvents=0;fillColor=none;points=[[0,0.5],[1,0.5]];portConstraint=eastwest;top=0;left=0;right=0;bottom=1;" vertex="1" parent="NXn6PCg6-Ud2dN9pKlLt-24">
          <mxGeometry y="30" width="330" height="30" as="geometry" />
        </mxCell>
        <mxCell id="NXn6PCg6-Ud2dN9pKlLt-26" value="PK" style="shape=partialRectangle;overflow=hidden;connectable=0;fillColor=none;top=0;left=0;bottom=0;right=0;fontStyle=1;" vertex="1" parent="NXn6PCg6-Ud2dN9pKlLt-25">
          <mxGeometry width="30" height="30" as="geometry" />
        </mxCell>
        <mxCell id="NXn6PCg6-Ud2dN9pKlLt-27" value="Id object(id)" style="shape=partialRectangle;overflow=hidden;connectable=0;fillColor=none;top=0;left=0;bottom=0;right=0;align=left;spacingLeft=6;fontStyle=5;" vertex="1" parent="NXn6PCg6-Ud2dN9pKlLt-25">
          <mxGeometry x="30" width="300" height="30" as="geometry" />
        </mxCell>
        <mxCell id="NXn6PCg6-Ud2dN9pKlLt-28" value="" style="shape=partialRectangle;collapsible=0;dropTarget=0;pointerEvents=0;fillColor=none;points=[[0,0.5],[1,0.5]];portConstraint=eastwest;top=0;left=0;right=0;bottom=0;" vertex="1" parent="NXn6PCg6-Ud2dN9pKlLt-24">
          <mxGeometry y="60" width="330" height="30" as="geometry" />
        </mxCell>
        <mxCell id="NXn6PCg6-Ud2dN9pKlLt-29" value="" style="shape=partialRectangle;overflow=hidden;connectable=0;fillColor=none;top=0;left=0;bottom=0;right=0;" vertex="1" parent="NXn6PCg6-Ud2dN9pKlLt-28">
          <mxGeometry width="30" height="30" as="geometry" />
        </mxCell>
        <mxCell id="NXn6PCg6-Ud2dN9pKlLt-30" value="RegionCode(string)[unique][query]" style="shape=partialRectangle;overflow=hidden;connectable=0;fillColor=none;top=0;left=0;bottom=0;right=0;align=left;spacingLeft=6;" vertex="1" parent="NXn6PCg6-Ud2dN9pKlLt-28">
          <mxGeometry x="30" width="300" height="30" as="geometry" />
        </mxCell>
        <mxCell id="NXn6PCg6-Ud2dN9pKlLt-31" value="" style="shape=partialRectangle;collapsible=0;dropTarget=0;pointerEvents=0;fillColor=none;points=[[0,0.5],[1,0.5]];portConstraint=eastwest;top=0;left=0;right=0;bottom=0;" vertex="1" parent="NXn6PCg6-Ud2dN9pKlLt-24">
          <mxGeometry y="90" width="330" height="30" as="geometry" />
        </mxCell>
        <mxCell id="NXn6PCg6-Ud2dN9pKlLt-32" value="" style="shape=partialRectangle;overflow=hidden;connectable=0;fillColor=none;top=0;left=0;bottom=0;right=0;" vertex="1" parent="NXn6PCg6-Ud2dN9pKlLt-31">
          <mxGeometry width="30" height="30" as="geometry" />
        </mxCell>
        <mxCell id="NXn6PCg6-Ud2dN9pKlLt-33" value="Grade(级别：国家、省份、城市、地区)" style="shape=partialRectangle;overflow=hidden;connectable=0;fillColor=none;top=0;left=0;bottom=0;right=0;align=left;spacingLeft=6;" vertex="1" parent="NXn6PCg6-Ud2dN9pKlLt-31">
          <mxGeometry x="30" width="300" height="30" as="geometry" />
        </mxCell>
        <mxCell id="NXn6PCg6-Ud2dN9pKlLt-34" value="" style="shape=partialRectangle;collapsible=0;dropTarget=0;pointerEvents=0;fillColor=none;points=[[0,0.5],[1,0.5]];portConstraint=eastwest;top=0;left=0;right=0;bottom=0;" vertex="1" parent="NXn6PCg6-Ud2dN9pKlLt-24">
          <mxGeometry y="120" width="330" height="30" as="geometry" />
        </mxCell>
        <mxCell id="NXn6PCg6-Ud2dN9pKlLt-35" value="" style="shape=partialRectangle;overflow=hidden;connectable=0;fillColor=none;top=0;left=0;bottom=0;right=0;" vertex="1" parent="NXn6PCg6-Ud2dN9pKlLt-34">
          <mxGeometry width="30" height="30" as="geometry" />
        </mxCell>
        <mxCell id="NXn6PCg6-Ud2dN9pKlLt-36" value="CNTitle[query]" style="shape=partialRectangle;overflow=hidden;connectable=0;fillColor=none;top=0;left=0;bottom=0;right=0;align=left;spacingLeft=6;" vertex="1" parent="NXn6PCg6-Ud2dN9pKlLt-34">
          <mxGeometry x="30" width="300" height="30" as="geometry" />
        </mxCell>
        <mxCell id="NXn6PCg6-Ud2dN9pKlLt-37" value="" style="shape=partialRectangle;collapsible=0;dropTarget=0;pointerEvents=0;fillColor=none;points=[[0,0.5],[1,0.5]];portConstraint=eastwest;top=0;left=0;right=0;bottom=0;" vertex="1" parent="NXn6PCg6-Ud2dN9pKlLt-24">
          <mxGeometry y="150" width="330" height="30" as="geometry" />
        </mxCell>
        <mxCell id="NXn6PCg6-Ud2dN9pKlLt-38" value="" style="shape=partialRectangle;overflow=hidden;connectable=0;fillColor=none;top=0;left=0;bottom=0;right=0;" vertex="1" parent="NXn6PCg6-Ud2dN9pKlLt-37">
          <mxGeometry width="30" height="30" as="geometry" />
        </mxCell>
        <mxCell id="NXn6PCg6-Ud2dN9pKlLt-39" value="ENTitle[query]" style="shape=partialRectangle;overflow=hidden;connectable=0;fillColor=none;top=0;left=0;bottom=0;right=0;align=left;spacingLeft=6;" vertex="1" parent="NXn6PCg6-Ud2dN9pKlLt-37">
          <mxGeometry x="30" width="300" height="30" as="geometry" />
        </mxCell>
        <mxCell id="NXn6PCg6-Ud2dN9pKlLt-40" value="" style="shape=partialRectangle;collapsible=0;dropTarget=0;pointerEvents=0;fillColor=none;points=[[0,0.5],[1,0.5]];portConstraint=eastwest;top=0;left=0;right=0;bottom=0;" vertex="1" parent="NXn6PCg6-Ud2dN9pKlLt-24">
          <mxGeometry y="180" width="330" height="30" as="geometry" />
        </mxCell>
        <mxCell id="NXn6PCg6-Ud2dN9pKlLt-41" value="" style="shape=partialRectangle;overflow=hidden;connectable=0;fillColor=none;top=0;left=0;bottom=0;right=0;" vertex="1" parent="NXn6PCg6-Ud2dN9pKlLt-40">
          <mxGeometry width="30" height="30" as="geometry" />
        </mxCell>
        <mxCell id="NXn6PCg6-Ud2dN9pKlLt-42" value="FatherCode(string)[三字码统一编码]" style="shape=partialRectangle;overflow=hidden;connectable=0;fillColor=none;top=0;left=0;bottom=0;right=0;align=left;spacingLeft=6;" vertex="1" parent="NXn6PCg6-Ud2dN9pKlLt-40">
          <mxGeometry x="30" width="300" height="30" as="geometry" />
        </mxCell>
        <mxCell id="NXn6PCg6-Ud2dN9pKlLt-46" value="Organizations(组织)" style="shape=table;startSize=30;container=1;collapsible=1;childLayout=tableLayout;fixedRows=1;rowLines=0;fontStyle=1;align=center;resizeLast=1;" vertex="1" parent="1">
          <mxGeometry x="50" y="379" width="330" height="310" as="geometry" />
        </mxCell>
        <mxCell id="NXn6PCg6-Ud2dN9pKlLt-47" value="" style="shape=partialRectangle;collapsible=0;dropTarget=0;pointerEvents=0;fillColor=none;points=[[0,0.5],[1,0.5]];portConstraint=eastwest;top=0;left=0;right=0;bottom=1;" vertex="1" parent="NXn6PCg6-Ud2dN9pKlLt-46">
          <mxGeometry y="30" width="330" height="30" as="geometry" />
        </mxCell>
        <mxCell id="NXn6PCg6-Ud2dN9pKlLt-48" value="PK" style="shape=partialRectangle;overflow=hidden;connectable=0;fillColor=none;top=0;left=0;bottom=0;right=0;fontStyle=1;" vertex="1" parent="NXn6PCg6-Ud2dN9pKlLt-47">
          <mxGeometry width="30" height="30" as="geometry" />
        </mxCell>
        <mxCell id="NXn6PCg6-Ud2dN9pKlLt-49" value="Id object(id)" style="shape=partialRectangle;overflow=hidden;connectable=0;fillColor=none;top=0;left=0;bottom=0;right=0;align=left;spacingLeft=6;fontStyle=5;" vertex="1" parent="NXn6PCg6-Ud2dN9pKlLt-47">
          <mxGeometry x="30" width="300" height="30" as="geometry" />
        </mxCell>
        <mxCell id="NXn6PCg6-Ud2dN9pKlLt-68" value="" style="shape=partialRectangle;collapsible=0;dropTarget=0;pointerEvents=0;fillColor=none;points=[[0,0.5],[1,0.5]];portConstraint=eastwest;top=0;left=0;right=0;bottom=0;" vertex="1" parent="NXn6PCg6-Ud2dN9pKlLt-46">
          <mxGeometry y="60" width="330" height="30" as="geometry" />
        </mxCell>
        <mxCell id="NXn6PCg6-Ud2dN9pKlLt-69" value="" style="shape=partialRectangle;overflow=hidden;connectable=0;fillColor=none;top=0;left=0;bottom=0;right=0;" vertex="1" parent="NXn6PCg6-Ud2dN9pKlLt-68">
          <mxGeometry width="30" height="30" as="geometry" />
        </mxCell>
        <mxCell id="NXn6PCg6-Ud2dN9pKlLt-70" value="OrganizationCode(string)[unique][query]" style="shape=partialRectangle;overflow=hidden;connectable=0;fillColor=none;top=0;left=0;bottom=0;right=0;align=left;spacingLeft=6;" vertex="1" parent="NXn6PCg6-Ud2dN9pKlLt-68">
          <mxGeometry x="30" width="300" height="30" as="geometry" />
        </mxCell>
        <mxCell id="NXn6PCg6-Ud2dN9pKlLt-50" value="" style="shape=partialRectangle;collapsible=0;dropTarget=0;pointerEvents=0;fillColor=none;points=[[0,0.5],[1,0.5]];portConstraint=eastwest;top=0;left=0;right=0;bottom=0;" vertex="1" parent="NXn6PCg6-Ud2dN9pKlLt-46">
          <mxGeometry y="90" width="330" height="30" as="geometry" />
        </mxCell>
        <mxCell id="NXn6PCg6-Ud2dN9pKlLt-51" value="" style="shape=partialRectangle;overflow=hidden;connectable=0;fillColor=none;top=0;left=0;bottom=0;right=0;" vertex="1" parent="NXn6PCg6-Ud2dN9pKlLt-50">
          <mxGeometry width="30" height="30" as="geometry" />
        </mxCell>
        <mxCell id="NXn6PCg6-Ud2dN9pKlLt-52" value="Name(string)[query]" style="shape=partialRectangle;overflow=hidden;connectable=0;fillColor=none;top=0;left=0;bottom=0;right=0;align=left;spacingLeft=6;" vertex="1" parent="NXn6PCg6-Ud2dN9pKlLt-50">
          <mxGeometry x="30" width="300" height="30" as="geometry" />
        </mxCell>
        <mxCell id="NXn6PCg6-Ud2dN9pKlLt-53" value="" style="shape=partialRectangle;collapsible=0;dropTarget=0;pointerEvents=0;fillColor=none;points=[[0,0.5],[1,0.5]];portConstraint=eastwest;top=0;left=0;right=0;bottom=0;" vertex="1" parent="NXn6PCg6-Ud2dN9pKlLt-46">
          <mxGeometry y="120" width="330" height="30" as="geometry" />
        </mxCell>
        <mxCell id="NXn6PCg6-Ud2dN9pKlLt-54" value="" style="shape=partialRectangle;overflow=hidden;connectable=0;fillColor=none;top=0;left=0;bottom=0;right=0;" vertex="1" parent="NXn6PCg6-Ud2dN9pKlLt-53">
          <mxGeometry width="30" height="30" as="geometry" />
        </mxCell>
        <mxCell id="NXn6PCg6-Ud2dN9pKlLt-55" value="Description(string)[query]" style="shape=partialRectangle;overflow=hidden;connectable=0;fillColor=none;top=0;left=0;bottom=0;right=0;align=left;spacingLeft=6;" vertex="1" parent="NXn6PCg6-Ud2dN9pKlLt-53">
          <mxGeometry x="30" width="300" height="30" as="geometry" />
        </mxCell>
        <mxCell id="NXn6PCg6-Ud2dN9pKlLt-56" value="" style="shape=partialRectangle;collapsible=0;dropTarget=0;pointerEvents=0;fillColor=none;points=[[0,0.5],[1,0.5]];portConstraint=eastwest;top=0;left=0;right=0;bottom=0;" vertex="1" parent="NXn6PCg6-Ud2dN9pKlLt-46">
          <mxGeometry y="150" width="330" height="30" as="geometry" />
        </mxCell>
        <mxCell id="NXn6PCg6-Ud2dN9pKlLt-57" value="" style="shape=partialRectangle;overflow=hidden;connectable=0;fillColor=none;top=0;left=0;bottom=0;right=0;" vertex="1" parent="NXn6PCg6-Ud2dN9pKlLt-56">
          <mxGeometry width="30" height="30" as="geometry" />
        </mxCell>
        <mxCell id="NXn6PCg6-Ud2dN9pKlLt-58" value="Country(Code,CNTitle,ENTitle)" style="shape=partialRectangle;overflow=hidden;connectable=0;fillColor=none;top=0;left=0;bottom=0;right=0;align=left;spacingLeft=6;" vertex="1" parent="NXn6PCg6-Ud2dN9pKlLt-56">
          <mxGeometry x="30" width="300" height="30" as="geometry" />
        </mxCell>
        <mxCell id="NXn6PCg6-Ud2dN9pKlLt-59" value="" style="shape=partialRectangle;collapsible=0;dropTarget=0;pointerEvents=0;fillColor=none;points=[[0,0.5],[1,0.5]];portConstraint=eastwest;top=0;left=0;right=0;bottom=0;" vertex="1" parent="NXn6PCg6-Ud2dN9pKlLt-46">
          <mxGeometry y="180" width="330" height="30" as="geometry" />
        </mxCell>
        <mxCell id="NXn6PCg6-Ud2dN9pKlLt-60" value="" style="shape=partialRectangle;overflow=hidden;connectable=0;fillColor=none;top=0;left=0;bottom=0;right=0;" vertex="1" parent="NXn6PCg6-Ud2dN9pKlLt-59">
          <mxGeometry width="30" height="30" as="geometry" />
        </mxCell>
        <mxCell id="NXn6PCg6-Ud2dN9pKlLt-61" value="Province(Code,CNTitle,ENTitle)" style="shape=partialRectangle;overflow=hidden;connectable=0;fillColor=none;top=0;left=0;bottom=0;right=0;align=left;spacingLeft=6;" vertex="1" parent="NXn6PCg6-Ud2dN9pKlLt-59">
          <mxGeometry x="30" width="300" height="30" as="geometry" />
        </mxCell>
        <mxCell id="NXn6PCg6-Ud2dN9pKlLt-62" value="" style="shape=partialRectangle;collapsible=0;dropTarget=0;pointerEvents=0;fillColor=none;points=[[0,0.5],[1,0.5]];portConstraint=eastwest;top=0;left=0;right=0;bottom=0;" vertex="1" parent="NXn6PCg6-Ud2dN9pKlLt-46">
          <mxGeometry y="210" width="330" height="30" as="geometry" />
        </mxCell>
        <mxCell id="NXn6PCg6-Ud2dN9pKlLt-63" value="" style="shape=partialRectangle;overflow=hidden;connectable=0;fillColor=none;top=0;left=0;bottom=0;right=0;" vertex="1" parent="NXn6PCg6-Ud2dN9pKlLt-62">
          <mxGeometry width="30" height="30" as="geometry" />
        </mxCell>
        <mxCell id="NXn6PCg6-Ud2dN9pKlLt-64" value="City(Code,CNTitle,ENTitle)" style="shape=partialRectangle;overflow=hidden;connectable=0;fillColor=none;top=0;left=0;bottom=0;right=0;align=left;spacingLeft=6;" vertex="1" parent="NXn6PCg6-Ud2dN9pKlLt-62">
          <mxGeometry x="30" width="300" height="30" as="geometry" />
        </mxCell>
        <mxCell id="NXn6PCg6-Ud2dN9pKlLt-65" value="" style="shape=partialRectangle;collapsible=0;dropTarget=0;pointerEvents=0;fillColor=none;points=[[0,0.5],[1,0.5]];portConstraint=eastwest;top=0;left=0;right=0;bottom=0;" vertex="1" parent="NXn6PCg6-Ud2dN9pKlLt-46">
          <mxGeometry y="240" width="330" height="30" as="geometry" />
        </mxCell>
        <mxCell id="NXn6PCg6-Ud2dN9pKlLt-66" value="" style="shape=partialRectangle;overflow=hidden;connectable=0;fillColor=none;top=0;left=0;bottom=0;right=0;" vertex="1" parent="NXn6PCg6-Ud2dN9pKlLt-65">
          <mxGeometry width="30" height="30" as="geometry" />
        </mxCell>
        <mxCell id="NXn6PCg6-Ud2dN9pKlLt-67" value="ParentCode(string)" style="shape=partialRectangle;overflow=hidden;connectable=0;fillColor=none;top=0;left=0;bottom=0;right=0;align=left;spacingLeft=6;" vertex="1" parent="NXn6PCg6-Ud2dN9pKlLt-65">
          <mxGeometry x="30" width="300" height="30" as="geometry" />
        </mxCell>
        <mxCell id="NXn6PCg6-Ud2dN9pKlLt-217" value="" style="shape=partialRectangle;collapsible=0;dropTarget=0;pointerEvents=0;fillColor=none;points=[[0,0.5],[1,0.5]];portConstraint=eastwest;top=0;left=0;right=0;bottom=0;" vertex="1" parent="NXn6PCg6-Ud2dN9pKlLt-46">
          <mxGeometry y="270" width="330" height="30" as="geometry" />
        </mxCell>
        <mxCell id="NXn6PCg6-Ud2dN9pKlLt-218" value="" style="shape=partialRectangle;overflow=hidden;connectable=0;fillColor=none;top=0;left=0;bottom=0;right=0;" vertex="1" parent="NXn6PCg6-Ud2dN9pKlLt-217">
          <mxGeometry width="30" height="30" as="geometry" />
        </mxCell>
        <mxCell id="NXn6PCg6-Ud2dN9pKlLt-219" value="AdminsCode(string)" style="shape=partialRectangle;overflow=hidden;connectable=0;fillColor=none;top=0;left=0;bottom=0;right=0;align=left;spacingLeft=6;" vertex="1" parent="NXn6PCg6-Ud2dN9pKlLt-217">
          <mxGeometry x="30" width="300" height="30" as="geometry" />
        </mxCell>
        <mxCell id="NXn6PCg6-Ud2dN9pKlLt-74" value="TerminalDatas(超声数据)" style="shape=table;startSize=30;container=1;collapsible=1;childLayout=tableLayout;fixedRows=1;rowLines=0;fontStyle=1;align=center;resizeLast=1;" vertex="1" parent="1">
          <mxGeometry x="830" y="796" width="380" height="250" as="geometry" />
        </mxCell>
        <mxCell id="NXn6PCg6-Ud2dN9pKlLt-75" value="" style="shape=partialRectangle;collapsible=0;dropTarget=0;pointerEvents=0;fillColor=none;points=[[0,0.5],[1,0.5]];portConstraint=eastwest;top=0;left=0;right=0;bottom=1;" vertex="1" parent="NXn6PCg6-Ud2dN9pKlLt-74">
          <mxGeometry y="30" width="380" height="30" as="geometry" />
        </mxCell>
        <mxCell id="NXn6PCg6-Ud2dN9pKlLt-76" value="PK" style="shape=partialRectangle;overflow=hidden;connectable=0;fillColor=none;top=0;left=0;bottom=0;right=0;fontStyle=1;" vertex="1" parent="NXn6PCg6-Ud2dN9pKlLt-75">
          <mxGeometry width="30" height="30" as="geometry" />
        </mxCell>
        <mxCell id="NXn6PCg6-Ud2dN9pKlLt-77" value="Id object(id)" style="shape=partialRectangle;overflow=hidden;connectable=0;fillColor=none;top=0;left=0;bottom=0;right=0;align=left;spacingLeft=6;fontStyle=5;" vertex="1" parent="NXn6PCg6-Ud2dN9pKlLt-75">
          <mxGeometry x="30" width="350" height="30" as="geometry" />
        </mxCell>
        <mxCell id="NXn6PCg6-Ud2dN9pKlLt-78" value="" style="shape=partialRectangle;collapsible=0;dropTarget=0;pointerEvents=0;fillColor=none;points=[[0,0.5],[1,0.5]];portConstraint=eastwest;top=0;left=0;right=0;bottom=0;" vertex="1" parent="NXn6PCg6-Ud2dN9pKlLt-74">
          <mxGeometry y="60" width="380" height="30" as="geometry" />
        </mxCell>
        <mxCell id="NXn6PCg6-Ud2dN9pKlLt-79" value="" style="shape=partialRectangle;overflow=hidden;connectable=0;fillColor=none;top=0;left=0;bottom=0;right=0;" vertex="1" parent="NXn6PCg6-Ud2dN9pKlLt-78">
          <mxGeometry width="30" height="30" as="geometry" />
        </mxCell>
        <mxCell id="NXn6PCg6-Ud2dN9pKlLt-80" value="TerminalCode(string)" style="shape=partialRectangle;overflow=hidden;connectable=0;fillColor=none;top=0;left=0;bottom=0;right=0;align=left;spacingLeft=6;" vertex="1" parent="NXn6PCg6-Ud2dN9pKlLt-78">
          <mxGeometry x="30" width="350" height="30" as="geometry" />
        </mxCell>
        <mxCell id="NXn6PCg6-Ud2dN9pKlLt-81" value="" style="shape=partialRectangle;collapsible=0;dropTarget=0;pointerEvents=0;fillColor=none;points=[[0,0.5],[1,0.5]];portConstraint=eastwest;top=0;left=0;right=0;bottom=0;" vertex="1" parent="NXn6PCg6-Ud2dN9pKlLt-74">
          <mxGeometry y="90" width="380" height="30" as="geometry" />
        </mxCell>
        <mxCell id="NXn6PCg6-Ud2dN9pKlLt-82" value="" style="shape=partialRectangle;overflow=hidden;connectable=0;fillColor=none;top=0;left=0;bottom=0;right=0;" vertex="1" parent="NXn6PCg6-Ud2dN9pKlLt-81">
          <mxGeometry width="30" height="30" as="geometry" />
        </mxCell>
        <mxCell id="NXn6PCg6-Ud2dN9pKlLt-83" value="RecordId(string)[relevance]" style="shape=partialRectangle;overflow=hidden;connectable=0;fillColor=none;top=0;left=0;bottom=0;right=0;align=left;spacingLeft=6;" vertex="1" parent="NXn6PCg6-Ud2dN9pKlLt-81">
          <mxGeometry x="30" width="350" height="30" as="geometry" />
        </mxCell>
        <mxCell id="NXn6PCg6-Ud2dN9pKlLt-84" value="" style="shape=partialRectangle;collapsible=0;dropTarget=0;pointerEvents=0;fillColor=none;points=[[0,0.5],[1,0.5]];portConstraint=eastwest;top=0;left=0;right=0;bottom=0;" vertex="1" parent="NXn6PCg6-Ud2dN9pKlLt-74">
          <mxGeometry y="120" width="380" height="30" as="geometry" />
        </mxCell>
        <mxCell id="NXn6PCg6-Ud2dN9pKlLt-85" value="" style="shape=partialRectangle;overflow=hidden;connectable=0;fillColor=none;top=0;left=0;bottom=0;right=0;" vertex="1" parent="NXn6PCg6-Ud2dN9pKlLt-84">
          <mxGeometry width="30" height="30" as="geometry" />
        </mxCell>
        <mxCell id="NXn6PCg6-Ud2dN9pKlLt-86" value="PatientInfo(Dictionary:{IdCard,Name,Birthday,GenderType})" style="shape=partialRectangle;overflow=hidden;connectable=0;fillColor=none;top=0;left=0;bottom=0;right=0;align=left;spacingLeft=6;" vertex="1" parent="NXn6PCg6-Ud2dN9pKlLt-84">
          <mxGeometry x="30" width="350" height="30" as="geometry" />
        </mxCell>
        <mxCell id="NXn6PCg6-Ud2dN9pKlLt-87" value="" style="shape=partialRectangle;collapsible=0;dropTarget=0;pointerEvents=0;fillColor=none;points=[[0,0.5],[1,0.5]];portConstraint=eastwest;top=0;left=0;right=0;bottom=0;" vertex="1" parent="NXn6PCg6-Ud2dN9pKlLt-74">
          <mxGeometry y="150" width="380" height="30" as="geometry" />
        </mxCell>
        <mxCell id="NXn6PCg6-Ud2dN9pKlLt-88" value="" style="shape=partialRectangle;overflow=hidden;connectable=0;fillColor=none;top=0;left=0;bottom=0;right=0;" vertex="1" parent="NXn6PCg6-Ud2dN9pKlLt-87">
          <mxGeometry width="30" height="30" as="geometry" />
        </mxCell>
        <mxCell id="NXn6PCg6-Ud2dN9pKlLt-89" value="PreviewImageToken" style="shape=partialRectangle;overflow=hidden;connectable=0;fillColor=none;top=0;left=0;bottom=0;right=0;align=left;spacingLeft=6;" vertex="1" parent="NXn6PCg6-Ud2dN9pKlLt-87">
          <mxGeometry x="30" width="350" height="30" as="geometry" />
        </mxCell>
        <mxCell id="NXn6PCg6-Ud2dN9pKlLt-90" value="" style="shape=partialRectangle;collapsible=0;dropTarget=0;pointerEvents=0;fillColor=none;points=[[0,0.5],[1,0.5]];portConstraint=eastwest;top=0;left=0;right=0;bottom=0;" vertex="1" parent="NXn6PCg6-Ud2dN9pKlLt-74">
          <mxGeometry y="180" width="380" height="30" as="geometry" />
        </mxCell>
        <mxCell id="NXn6PCg6-Ud2dN9pKlLt-91" value="" style="shape=partialRectangle;overflow=hidden;connectable=0;fillColor=none;top=0;left=0;bottom=0;right=0;" vertex="1" parent="NXn6PCg6-Ud2dN9pKlLt-90">
          <mxGeometry width="30" height="30" as="geometry" />
        </mxCell>
        <mxCell id="NXn6PCg6-Ud2dN9pKlLt-92" value="ImageFiles[](Token)" style="shape=partialRectangle;overflow=hidden;connectable=0;fillColor=none;top=0;left=0;bottom=0;right=0;align=left;spacingLeft=6;" vertex="1" parent="NXn6PCg6-Ud2dN9pKlLt-90">
          <mxGeometry x="30" width="350" height="30" as="geometry" />
        </mxCell>
        <mxCell id="NXn6PCg6-Ud2dN9pKlLt-93" value="" style="shape=partialRectangle;collapsible=0;dropTarget=0;pointerEvents=0;fillColor=none;points=[[0,0.5],[1,0.5]];portConstraint=eastwest;top=0;left=0;right=0;bottom=0;" vertex="1" parent="NXn6PCg6-Ud2dN9pKlLt-74">
          <mxGeometry y="210" width="380" height="30" as="geometry" />
        </mxCell>
        <mxCell id="NXn6PCg6-Ud2dN9pKlLt-94" value="" style="shape=partialRectangle;overflow=hidden;connectable=0;fillColor=none;top=0;left=0;bottom=0;right=0;" vertex="1" parent="NXn6PCg6-Ud2dN9pKlLt-93">
          <mxGeometry width="30" height="30" as="geometry" />
        </mxCell>
        <mxCell id="NXn6PCg6-Ud2dN9pKlLt-95" value="DataType(int)" style="shape=partialRectangle;overflow=hidden;connectable=0;fillColor=none;top=0;left=0;bottom=0;right=0;align=left;spacingLeft=6;" vertex="1" parent="NXn6PCg6-Ud2dN9pKlLt-93">
          <mxGeometry x="30" width="350" height="30" as="geometry" />
        </mxCell>
        <mxCell id="NXn6PCg6-Ud2dN9pKlLt-102" value="Admins(管理员)" style="shape=table;startSize=30;container=1;collapsible=1;childLayout=tableLayout;fixedRows=1;rowLines=0;fontStyle=1;align=center;resizeLast=1;" vertex="1" parent="1">
          <mxGeometry x="420" y="20" width="330" height="310" as="geometry" />
        </mxCell>
        <mxCell id="NXn6PCg6-Ud2dN9pKlLt-103" value="" style="shape=partialRectangle;collapsible=0;dropTarget=0;pointerEvents=0;fillColor=none;points=[[0,0.5],[1,0.5]];portConstraint=eastwest;top=0;left=0;right=0;bottom=1;" vertex="1" parent="NXn6PCg6-Ud2dN9pKlLt-102">
          <mxGeometry y="30" width="330" height="30" as="geometry" />
        </mxCell>
        <mxCell id="NXn6PCg6-Ud2dN9pKlLt-104" value="PK" style="shape=partialRectangle;overflow=hidden;connectable=0;fillColor=none;top=0;left=0;bottom=0;right=0;fontStyle=1;" vertex="1" parent="NXn6PCg6-Ud2dN9pKlLt-103">
          <mxGeometry width="30" height="30" as="geometry" />
        </mxCell>
        <mxCell id="NXn6PCg6-Ud2dN9pKlLt-105" value="Id object(id)" style="shape=partialRectangle;overflow=hidden;connectable=0;fillColor=none;top=0;left=0;bottom=0;right=0;align=left;spacingLeft=6;fontStyle=5;" vertex="1" parent="NXn6PCg6-Ud2dN9pKlLt-103">
          <mxGeometry x="30" width="300" height="30" as="geometry" />
        </mxCell>
        <mxCell id="NXn6PCg6-Ud2dN9pKlLt-106" value="" style="shape=partialRectangle;collapsible=0;dropTarget=0;pointerEvents=0;fillColor=none;points=[[0,0.5],[1,0.5]];portConstraint=eastwest;top=0;left=0;right=0;bottom=0;" vertex="1" parent="NXn6PCg6-Ud2dN9pKlLt-102">
          <mxGeometry y="60" width="330" height="30" as="geometry" />
        </mxCell>
        <mxCell id="NXn6PCg6-Ud2dN9pKlLt-107" value="" style="shape=partialRectangle;overflow=hidden;connectable=0;fillColor=none;top=0;left=0;bottom=0;right=0;" vertex="1" parent="NXn6PCg6-Ud2dN9pKlLt-106">
          <mxGeometry width="30" height="30" as="geometry" />
        </mxCell>
        <mxCell id="NXn6PCg6-Ud2dN9pKlLt-108" value="AdminsCode(string)[unique][query]" style="shape=partialRectangle;overflow=hidden;connectable=0;fillColor=none;top=0;left=0;bottom=0;right=0;align=left;spacingLeft=6;" vertex="1" parent="NXn6PCg6-Ud2dN9pKlLt-106">
          <mxGeometry x="30" width="300" height="30" as="geometry" />
        </mxCell>
        <mxCell id="NXn6PCg6-Ud2dN9pKlLt-109" value="" style="shape=partialRectangle;collapsible=0;dropTarget=0;pointerEvents=0;fillColor=none;points=[[0,0.5],[1,0.5]];portConstraint=eastwest;top=0;left=0;right=0;bottom=0;" vertex="1" parent="NXn6PCg6-Ud2dN9pKlLt-102">
          <mxGeometry y="90" width="330" height="30" as="geometry" />
        </mxCell>
        <mxCell id="NXn6PCg6-Ud2dN9pKlLt-110" value="" style="shape=partialRectangle;overflow=hidden;connectable=0;fillColor=none;top=0;left=0;bottom=0;right=0;" vertex="1" parent="NXn6PCg6-Ud2dN9pKlLt-109">
          <mxGeometry width="30" height="30" as="geometry" />
        </mxCell>
        <mxCell id="NXn6PCg6-Ud2dN9pKlLt-111" value="Name(string)[query]" style="shape=partialRectangle;overflow=hidden;connectable=0;fillColor=none;top=0;left=0;bottom=0;right=0;align=left;spacingLeft=6;" vertex="1" parent="NXn6PCg6-Ud2dN9pKlLt-109">
          <mxGeometry x="30" width="300" height="30" as="geometry" />
        </mxCell>
        <mxCell id="NXn6PCg6-Ud2dN9pKlLt-257" value="" style="shape=partialRectangle;collapsible=0;dropTarget=0;pointerEvents=0;fillColor=none;points=[[0,0.5],[1,0.5]];portConstraint=eastwest;top=0;left=0;right=0;bottom=0;" vertex="1" parent="NXn6PCg6-Ud2dN9pKlLt-102">
          <mxGeometry y="120" width="330" height="30" as="geometry" />
        </mxCell>
        <mxCell id="NXn6PCg6-Ud2dN9pKlLt-258" value="" style="shape=partialRectangle;overflow=hidden;connectable=0;fillColor=none;top=0;left=0;bottom=0;right=0;" vertex="1" parent="NXn6PCg6-Ud2dN9pKlLt-257">
          <mxGeometry width="30" height="30" as="geometry" />
        </mxCell>
        <mxCell id="NXn6PCg6-Ud2dN9pKlLt-259" value="SecretPassword(string)" style="shape=partialRectangle;overflow=hidden;connectable=0;fillColor=none;top=0;left=0;bottom=0;right=0;align=left;spacingLeft=6;" vertex="1" parent="NXn6PCg6-Ud2dN9pKlLt-257">
          <mxGeometry x="30" width="300" height="30" as="geometry" />
        </mxCell>
        <mxCell id="NXn6PCg6-Ud2dN9pKlLt-112" value="" style="shape=partialRectangle;collapsible=0;dropTarget=0;pointerEvents=0;fillColor=none;points=[[0,0.5],[1,0.5]];portConstraint=eastwest;top=0;left=0;right=0;bottom=0;" vertex="1" parent="NXn6PCg6-Ud2dN9pKlLt-102">
          <mxGeometry y="150" width="330" height="30" as="geometry" />
        </mxCell>
        <mxCell id="NXn6PCg6-Ud2dN9pKlLt-113" value="" style="shape=partialRectangle;overflow=hidden;connectable=0;fillColor=none;top=0;left=0;bottom=0;right=0;" vertex="1" parent="NXn6PCg6-Ud2dN9pKlLt-112">
          <mxGeometry width="30" height="30" as="geometry" />
        </mxCell>
        <mxCell id="NXn6PCg6-Ud2dN9pKlLt-114" value="Phone(string)" style="shape=partialRectangle;overflow=hidden;connectable=0;fillColor=none;top=0;left=0;bottom=0;right=0;align=left;spacingLeft=6;" vertex="1" parent="NXn6PCg6-Ud2dN9pKlLt-112">
          <mxGeometry x="30" width="300" height="30" as="geometry" />
        </mxCell>
        <mxCell id="NXn6PCg6-Ud2dN9pKlLt-115" value="" style="shape=partialRectangle;collapsible=0;dropTarget=0;pointerEvents=0;fillColor=none;points=[[0,0.5],[1,0.5]];portConstraint=eastwest;top=0;left=0;right=0;bottom=0;" vertex="1" parent="NXn6PCg6-Ud2dN9pKlLt-102">
          <mxGeometry y="180" width="330" height="30" as="geometry" />
        </mxCell>
        <mxCell id="NXn6PCg6-Ud2dN9pKlLt-116" value="" style="shape=partialRectangle;overflow=hidden;connectable=0;fillColor=none;top=0;left=0;bottom=0;right=0;" vertex="1" parent="NXn6PCg6-Ud2dN9pKlLt-115">
          <mxGeometry width="30" height="30" as="geometry" />
        </mxCell>
        <mxCell id="NXn6PCg6-Ud2dN9pKlLt-117" value="Email(string)" style="shape=partialRectangle;overflow=hidden;connectable=0;fillColor=none;top=0;left=0;bottom=0;right=0;align=left;spacingLeft=6;" vertex="1" parent="NXn6PCg6-Ud2dN9pKlLt-115">
          <mxGeometry x="30" width="300" height="30" as="geometry" />
        </mxCell>
        <mxCell id="NXn6PCg6-Ud2dN9pKlLt-118" value="" style="shape=partialRectangle;collapsible=0;dropTarget=0;pointerEvents=0;fillColor=none;points=[[0,0.5],[1,0.5]];portConstraint=eastwest;top=0;left=0;right=0;bottom=0;" vertex="1" parent="NXn6PCg6-Ud2dN9pKlLt-102">
          <mxGeometry y="210" width="330" height="30" as="geometry" />
        </mxCell>
        <mxCell id="NXn6PCg6-Ud2dN9pKlLt-119" value="" style="shape=partialRectangle;overflow=hidden;connectable=0;fillColor=none;top=0;left=0;bottom=0;right=0;" vertex="1" parent="NXn6PCg6-Ud2dN9pKlLt-118">
          <mxGeometry width="30" height="30" as="geometry" />
        </mxCell>
        <mxCell id="NXn6PCg6-Ud2dN9pKlLt-120" value="HeadImageToken(string)" style="shape=partialRectangle;overflow=hidden;connectable=0;fillColor=none;top=0;left=0;bottom=0;right=0;align=left;spacingLeft=6;" vertex="1" parent="NXn6PCg6-Ud2dN9pKlLt-118">
          <mxGeometry x="30" width="300" height="30" as="geometry" />
        </mxCell>
        <mxCell id="NXn6PCg6-Ud2dN9pKlLt-121" value="" style="shape=partialRectangle;collapsible=0;dropTarget=0;pointerEvents=0;fillColor=none;points=[[0,0.5],[1,0.5]];portConstraint=eastwest;top=0;left=0;right=0;bottom=0;" vertex="1" parent="NXn6PCg6-Ud2dN9pKlLt-102">
          <mxGeometry y="240" width="330" height="30" as="geometry" />
        </mxCell>
        <mxCell id="NXn6PCg6-Ud2dN9pKlLt-122" value="" style="shape=partialRectangle;overflow=hidden;connectable=0;fillColor=none;top=0;left=0;bottom=0;right=0;" vertex="1" parent="NXn6PCg6-Ud2dN9pKlLt-121">
          <mxGeometry width="30" height="30" as="geometry" />
        </mxCell>
        <mxCell id="NXn6PCg6-Ud2dN9pKlLt-123" value="FatherCode(string)" style="shape=partialRectangle;overflow=hidden;connectable=0;fillColor=none;top=0;left=0;bottom=0;right=0;align=left;spacingLeft=6;" vertex="1" parent="NXn6PCg6-Ud2dN9pKlLt-121">
          <mxGeometry x="30" width="300" height="30" as="geometry" />
        </mxCell>
        <mxCell id="NXn6PCg6-Ud2dN9pKlLt-263" value="" style="shape=partialRectangle;collapsible=0;dropTarget=0;pointerEvents=0;fillColor=none;points=[[0,0.5],[1,0.5]];portConstraint=eastwest;top=0;left=0;right=0;bottom=0;" vertex="1" parent="NXn6PCg6-Ud2dN9pKlLt-102">
          <mxGeometry y="270" width="330" height="30" as="geometry" />
        </mxCell>
        <mxCell id="NXn6PCg6-Ud2dN9pKlLt-264" value="" style="shape=partialRectangle;overflow=hidden;connectable=0;fillColor=none;top=0;left=0;bottom=0;right=0;" vertex="1" parent="NXn6PCg6-Ud2dN9pKlLt-263">
          <mxGeometry width="30" height="30" as="geometry" />
        </mxCell>
        <mxCell id="NXn6PCg6-Ud2dN9pKlLt-265" value="AuthorityGroup(string)[relevance]" style="shape=partialRectangle;overflow=hidden;connectable=0;fillColor=none;top=0;left=0;bottom=0;right=0;align=left;spacingLeft=6;" vertex="1" parent="NXn6PCg6-Ud2dN9pKlLt-263">
          <mxGeometry x="30" width="300" height="30" as="geometry" />
        </mxCell>
        <mxCell id="NXn6PCg6-Ud2dN9pKlLt-151" value="Features(权限)" style="shape=table;startSize=30;container=1;collapsible=1;childLayout=tableLayout;fixedRows=1;rowLines=0;fontStyle=1;align=center;resizeLast=1;" vertex="1" parent="1">
          <mxGeometry x="50" y="796" width="330" height="250" as="geometry" />
        </mxCell>
        <mxCell id="NXn6PCg6-Ud2dN9pKlLt-152" value="" style="shape=partialRectangle;collapsible=0;dropTarget=0;pointerEvents=0;fillColor=none;points=[[0,0.5],[1,0.5]];portConstraint=eastwest;top=0;left=0;right=0;bottom=1;" vertex="1" parent="NXn6PCg6-Ud2dN9pKlLt-151">
          <mxGeometry y="30" width="330" height="30" as="geometry" />
        </mxCell>
        <mxCell id="NXn6PCg6-Ud2dN9pKlLt-153" value="PK" style="shape=partialRectangle;overflow=hidden;connectable=0;fillColor=none;top=0;left=0;bottom=0;right=0;fontStyle=1;" vertex="1" parent="NXn6PCg6-Ud2dN9pKlLt-152">
          <mxGeometry width="30" height="30" as="geometry" />
        </mxCell>
        <mxCell id="NXn6PCg6-Ud2dN9pKlLt-154" value="Id object(id)" style="shape=partialRectangle;overflow=hidden;connectable=0;fillColor=none;top=0;left=0;bottom=0;right=0;align=left;spacingLeft=6;fontStyle=5;" vertex="1" parent="NXn6PCg6-Ud2dN9pKlLt-152">
          <mxGeometry x="30" width="300" height="30" as="geometry" />
        </mxCell>
        <mxCell id="NXn6PCg6-Ud2dN9pKlLt-155" value="" style="shape=partialRectangle;collapsible=0;dropTarget=0;pointerEvents=0;fillColor=none;points=[[0,0.5],[1,0.5]];portConstraint=eastwest;top=0;left=0;right=0;bottom=0;" vertex="1" parent="NXn6PCg6-Ud2dN9pKlLt-151">
          <mxGeometry y="60" width="330" height="30" as="geometry" />
        </mxCell>
        <mxCell id="NXn6PCg6-Ud2dN9pKlLt-156" value="" style="shape=partialRectangle;overflow=hidden;connectable=0;fillColor=none;top=0;left=0;bottom=0;right=0;" vertex="1" parent="NXn6PCg6-Ud2dN9pKlLt-155">
          <mxGeometry width="30" height="30" as="geometry" />
        </mxCell>
        <mxCell id="NXn6PCg6-Ud2dN9pKlLt-157" value="FeatureCode(string)[unique][query]" style="shape=partialRectangle;overflow=hidden;connectable=0;fillColor=none;top=0;left=0;bottom=0;right=0;align=left;spacingLeft=6;" vertex="1" parent="NXn6PCg6-Ud2dN9pKlLt-155">
          <mxGeometry x="30" width="300" height="30" as="geometry" />
        </mxCell>
        <mxCell id="NXn6PCg6-Ud2dN9pKlLt-158" value="" style="shape=partialRectangle;collapsible=0;dropTarget=0;pointerEvents=0;fillColor=none;points=[[0,0.5],[1,0.5]];portConstraint=eastwest;top=0;left=0;right=0;bottom=0;" vertex="1" parent="NXn6PCg6-Ud2dN9pKlLt-151">
          <mxGeometry y="90" width="330" height="30" as="geometry" />
        </mxCell>
        <mxCell id="NXn6PCg6-Ud2dN9pKlLt-159" value="" style="shape=partialRectangle;overflow=hidden;connectable=0;fillColor=none;top=0;left=0;bottom=0;right=0;" vertex="1" parent="NXn6PCg6-Ud2dN9pKlLt-158">
          <mxGeometry width="30" height="30" as="geometry" />
        </mxCell>
        <mxCell id="NXn6PCg6-Ud2dN9pKlLt-160" value="FeatureName(string)[query]权限名称" style="shape=partialRectangle;overflow=hidden;connectable=0;fillColor=none;top=0;left=0;bottom=0;right=0;align=left;spacingLeft=6;" vertex="1" parent="NXn6PCg6-Ud2dN9pKlLt-158">
          <mxGeometry x="30" width="300" height="30" as="geometry" />
        </mxCell>
        <mxCell id="NXn6PCg6-Ud2dN9pKlLt-161" value="" style="shape=partialRectangle;collapsible=0;dropTarget=0;pointerEvents=0;fillColor=none;points=[[0,0.5],[1,0.5]];portConstraint=eastwest;top=0;left=0;right=0;bottom=0;" vertex="1" parent="NXn6PCg6-Ud2dN9pKlLt-151">
          <mxGeometry y="120" width="330" height="30" as="geometry" />
        </mxCell>
        <mxCell id="NXn6PCg6-Ud2dN9pKlLt-162" value="" style="shape=partialRectangle;overflow=hidden;connectable=0;fillColor=none;top=0;left=0;bottom=0;right=0;" vertex="1" parent="NXn6PCg6-Ud2dN9pKlLt-161">
          <mxGeometry width="30" height="30" as="geometry" />
        </mxCell>
        <mxCell id="NXn6PCg6-Ud2dN9pKlLt-163" value="Description(string)" style="shape=partialRectangle;overflow=hidden;connectable=0;fillColor=none;top=0;left=0;bottom=0;right=0;align=left;spacingLeft=6;" vertex="1" parent="NXn6PCg6-Ud2dN9pKlLt-161">
          <mxGeometry x="30" width="300" height="30" as="geometry" />
        </mxCell>
        <mxCell id="NXn6PCg6-Ud2dN9pKlLt-164" value="" style="shape=partialRectangle;collapsible=0;dropTarget=0;pointerEvents=0;fillColor=none;points=[[0,0.5],[1,0.5]];portConstraint=eastwest;top=0;left=0;right=0;bottom=0;" vertex="1" parent="NXn6PCg6-Ud2dN9pKlLt-151">
          <mxGeometry y="150" width="330" height="30" as="geometry" />
        </mxCell>
        <mxCell id="NXn6PCg6-Ud2dN9pKlLt-165" value="" style="shape=partialRectangle;overflow=hidden;connectable=0;fillColor=none;top=0;left=0;bottom=0;right=0;" vertex="1" parent="NXn6PCg6-Ud2dN9pKlLt-164">
          <mxGeometry width="30" height="30" as="geometry" />
        </mxCell>
        <mxCell id="NXn6PCg6-Ud2dN9pKlLt-166" value="FeatureRelevanceType(int)(关联类型)" style="shape=partialRectangle;overflow=hidden;connectable=0;fillColor=none;top=0;left=0;bottom=0;right=0;align=left;spacingLeft=6;" vertex="1" parent="NXn6PCg6-Ud2dN9pKlLt-164">
          <mxGeometry x="30" width="300" height="30" as="geometry" />
        </mxCell>
        <mxCell id="NXn6PCg6-Ud2dN9pKlLt-167" value="" style="shape=partialRectangle;collapsible=0;dropTarget=0;pointerEvents=0;fillColor=none;points=[[0,0.5],[1,0.5]];portConstraint=eastwest;top=0;left=0;right=0;bottom=0;" vertex="1" parent="NXn6PCg6-Ud2dN9pKlLt-151">
          <mxGeometry y="180" width="330" height="30" as="geometry" />
        </mxCell>
        <mxCell id="NXn6PCg6-Ud2dN9pKlLt-168" value="" style="shape=partialRectangle;overflow=hidden;connectable=0;fillColor=none;top=0;left=0;bottom=0;right=0;" vertex="1" parent="NXn6PCg6-Ud2dN9pKlLt-167">
          <mxGeometry width="30" height="30" as="geometry" />
        </mxCell>
        <mxCell id="NXn6PCg6-Ud2dN9pKlLt-169" value="FeatureRelevanceItems[](object[])(实际关联内容)" style="shape=partialRectangle;overflow=hidden;connectable=0;fillColor=none;top=0;left=0;bottom=0;right=0;align=left;spacingLeft=6;" vertex="1" parent="NXn6PCg6-Ud2dN9pKlLt-167">
          <mxGeometry x="30" width="300" height="30" as="geometry" />
        </mxCell>
        <mxCell id="NXn6PCg6-Ud2dN9pKlLt-220" value="" style="shape=partialRectangle;collapsible=0;dropTarget=0;pointerEvents=0;fillColor=none;points=[[0,0.5],[1,0.5]];portConstraint=eastwest;top=0;left=0;right=0;bottom=0;" vertex="1" parent="NXn6PCg6-Ud2dN9pKlLt-151">
          <mxGeometry y="210" width="330" height="30" as="geometry" />
        </mxCell>
        <mxCell id="NXn6PCg6-Ud2dN9pKlLt-221" value="" style="shape=partialRectangle;overflow=hidden;connectable=0;fillColor=none;top=0;left=0;bottom=0;right=0;" vertex="1" parent="NXn6PCg6-Ud2dN9pKlLt-220">
          <mxGeometry width="30" height="30" as="geometry" />
        </mxCell>
        <mxCell id="NXn6PCg6-Ud2dN9pKlLt-222" value="AdminsCode(string)" style="shape=partialRectangle;overflow=hidden;connectable=0;fillColor=none;top=0;left=0;bottom=0;right=0;align=left;spacingLeft=6;" vertex="1" parent="NXn6PCg6-Ud2dN9pKlLt-220">
          <mxGeometry x="30" width="300" height="30" as="geometry" />
        </mxCell>
        <mxCell id="NXn6PCg6-Ud2dN9pKlLt-170" value="ReportInfoResults(报告)" style="shape=table;startSize=30;container=1;collapsible=1;childLayout=tableLayout;fixedRows=1;rowLines=0;fontStyle=1;align=center;resizeLast=1;" vertex="1" parent="1">
          <mxGeometry x="830" y="1116" width="380" height="220" as="geometry" />
        </mxCell>
        <mxCell id="NXn6PCg6-Ud2dN9pKlLt-171" value="" style="shape=partialRectangle;collapsible=0;dropTarget=0;pointerEvents=0;fillColor=none;points=[[0,0.5],[1,0.5]];portConstraint=eastwest;top=0;left=0;right=0;bottom=1;" vertex="1" parent="NXn6PCg6-Ud2dN9pKlLt-170">
          <mxGeometry y="30" width="380" height="30" as="geometry" />
        </mxCell>
        <mxCell id="NXn6PCg6-Ud2dN9pKlLt-172" value="PK" style="shape=partialRectangle;overflow=hidden;connectable=0;fillColor=none;top=0;left=0;bottom=0;right=0;fontStyle=1;" vertex="1" parent="NXn6PCg6-Ud2dN9pKlLt-171">
          <mxGeometry width="30" height="30" as="geometry" />
        </mxCell>
        <mxCell id="NXn6PCg6-Ud2dN9pKlLt-173" value="Id object(id)" style="shape=partialRectangle;overflow=hidden;connectable=0;fillColor=none;top=0;left=0;bottom=0;right=0;align=left;spacingLeft=6;fontStyle=5;" vertex="1" parent="NXn6PCg6-Ud2dN9pKlLt-171">
          <mxGeometry x="30" width="350" height="30" as="geometry" />
        </mxCell>
        <mxCell id="NXn6PCg6-Ud2dN9pKlLt-174" value="" style="shape=partialRectangle;collapsible=0;dropTarget=0;pointerEvents=0;fillColor=none;points=[[0,0.5],[1,0.5]];portConstraint=eastwest;top=0;left=0;right=0;bottom=0;" vertex="1" parent="NXn6PCg6-Ud2dN9pKlLt-170">
          <mxGeometry y="60" width="380" height="30" as="geometry" />
        </mxCell>
        <mxCell id="NXn6PCg6-Ud2dN9pKlLt-175" value="" style="shape=partialRectangle;overflow=hidden;connectable=0;fillColor=none;top=0;left=0;bottom=0;right=0;" vertex="1" parent="NXn6PCg6-Ud2dN9pKlLt-174">
          <mxGeometry width="30" height="30" as="geometry" />
        </mxCell>
        <mxCell id="NXn6PCg6-Ud2dN9pKlLt-176" value="ReportCode(string)[unique][query]" style="shape=partialRectangle;overflow=hidden;connectable=0;fillColor=none;top=0;left=0;bottom=0;right=0;align=left;spacingLeft=6;" vertex="1" parent="NXn6PCg6-Ud2dN9pKlLt-174">
          <mxGeometry x="30" width="350" height="30" as="geometry" />
        </mxCell>
        <mxCell id="NXn6PCg6-Ud2dN9pKlLt-177" value="" style="shape=partialRectangle;collapsible=0;dropTarget=0;pointerEvents=0;fillColor=none;points=[[0,0.5],[1,0.5]];portConstraint=eastwest;top=0;left=0;right=0;bottom=0;" vertex="1" parent="NXn6PCg6-Ud2dN9pKlLt-170">
          <mxGeometry y="90" width="380" height="30" as="geometry" />
        </mxCell>
        <mxCell id="NXn6PCg6-Ud2dN9pKlLt-178" value="" style="shape=partialRectangle;overflow=hidden;connectable=0;fillColor=none;top=0;left=0;bottom=0;right=0;" vertex="1" parent="NXn6PCg6-Ud2dN9pKlLt-177">
          <mxGeometry width="30" height="30" as="geometry" />
        </mxCell>
        <mxCell id="NXn6PCg6-Ud2dN9pKlLt-179" value="ReportTemplate(string)" style="shape=partialRectangle;overflow=hidden;connectable=0;fillColor=none;top=0;left=0;bottom=0;right=0;align=left;spacingLeft=6;" vertex="1" parent="NXn6PCg6-Ud2dN9pKlLt-177">
          <mxGeometry x="30" width="350" height="30" as="geometry" />
        </mxCell>
        <mxCell id="NXn6PCg6-Ud2dN9pKlLt-180" value="" style="shape=partialRectangle;collapsible=0;dropTarget=0;pointerEvents=0;fillColor=none;points=[[0,0.5],[1,0.5]];portConstraint=eastwest;top=0;left=0;right=0;bottom=0;" vertex="1" parent="NXn6PCg6-Ud2dN9pKlLt-170">
          <mxGeometry y="120" width="380" height="30" as="geometry" />
        </mxCell>
        <mxCell id="NXn6PCg6-Ud2dN9pKlLt-181" value="" style="shape=partialRectangle;overflow=hidden;connectable=0;fillColor=none;top=0;left=0;bottom=0;right=0;" vertex="1" parent="NXn6PCg6-Ud2dN9pKlLt-180">
          <mxGeometry width="30" height="30" as="geometry" />
        </mxCell>
        <mxCell id="NXn6PCg6-Ud2dN9pKlLt-182" value="ReportValuesJson(string)" style="shape=partialRectangle;overflow=hidden;connectable=0;fillColor=none;top=0;left=0;bottom=0;right=0;align=left;spacingLeft=6;" vertex="1" parent="NXn6PCg6-Ud2dN9pKlLt-180">
          <mxGeometry x="30" width="350" height="30" as="geometry" />
        </mxCell>
        <mxCell id="NXn6PCg6-Ud2dN9pKlLt-186" value="" style="shape=partialRectangle;collapsible=0;dropTarget=0;pointerEvents=0;fillColor=none;points=[[0,0.5],[1,0.5]];portConstraint=eastwest;top=0;left=0;right=0;bottom=0;" vertex="1" parent="NXn6PCg6-Ud2dN9pKlLt-170">
          <mxGeometry y="150" width="380" height="30" as="geometry" />
        </mxCell>
        <mxCell id="NXn6PCg6-Ud2dN9pKlLt-187" value="" style="shape=partialRectangle;overflow=hidden;connectable=0;fillColor=none;top=0;left=0;bottom=0;right=0;" vertex="1" parent="NXn6PCg6-Ud2dN9pKlLt-186">
          <mxGeometry width="30" height="30" as="geometry" />
        </mxCell>
        <mxCell id="NXn6PCg6-Ud2dN9pKlLt-188" value="RecordId(string)[relevance]" style="shape=partialRectangle;overflow=hidden;connectable=0;fillColor=none;top=0;left=0;bottom=0;right=0;align=left;spacingLeft=6;" vertex="1" parent="NXn6PCg6-Ud2dN9pKlLt-186">
          <mxGeometry x="30" width="350" height="30" as="geometry" />
        </mxCell>
        <mxCell id="NXn6PCg6-Ud2dN9pKlLt-189" value="" style="shape=partialRectangle;collapsible=0;dropTarget=0;pointerEvents=0;fillColor=none;points=[[0,0.5],[1,0.5]];portConstraint=eastwest;top=0;left=0;right=0;bottom=0;" vertex="1" parent="NXn6PCg6-Ud2dN9pKlLt-170">
          <mxGeometry y="180" width="380" height="30" as="geometry" />
        </mxCell>
        <mxCell id="NXn6PCg6-Ud2dN9pKlLt-190" value="" style="shape=partialRectangle;overflow=hidden;connectable=0;fillColor=none;top=0;left=0;bottom=0;right=0;" vertex="1" parent="NXn6PCg6-Ud2dN9pKlLt-189">
          <mxGeometry width="30" height="30" as="geometry" />
        </mxCell>
        <mxCell id="NXn6PCg6-Ud2dN9pKlLt-191" value="PatientInfo(Dictionary:{IdCard,Name,Birthday,GenderType})" style="shape=partialRectangle;overflow=hidden;connectable=0;fillColor=none;top=0;left=0;bottom=0;right=0;align=left;spacingLeft=6;" vertex="1" parent="NXn6PCg6-Ud2dN9pKlLt-189">
          <mxGeometry x="30" width="350" height="30" as="geometry" />
        </mxCell>
        <mxCell id="NXn6PCg6-Ud2dN9pKlLt-192" value="Users(用户)" style="shape=table;startSize=30;container=1;collapsible=1;childLayout=tableLayout;fixedRows=1;rowLines=0;fontStyle=1;align=center;resizeLast=1;" vertex="1" parent="1">
          <mxGeometry x="420" y="379" width="330" height="340" as="geometry" />
        </mxCell>
        <mxCell id="NXn6PCg6-Ud2dN9pKlLt-193" value="" style="shape=partialRectangle;collapsible=0;dropTarget=0;pointerEvents=0;fillColor=none;points=[[0,0.5],[1,0.5]];portConstraint=eastwest;top=0;left=0;right=0;bottom=1;" vertex="1" parent="NXn6PCg6-Ud2dN9pKlLt-192">
          <mxGeometry y="30" width="330" height="30" as="geometry" />
        </mxCell>
        <mxCell id="NXn6PCg6-Ud2dN9pKlLt-194" value="PK" style="shape=partialRectangle;overflow=hidden;connectable=0;fillColor=none;top=0;left=0;bottom=0;right=0;fontStyle=1;" vertex="1" parent="NXn6PCg6-Ud2dN9pKlLt-193">
          <mxGeometry width="30" height="30" as="geometry" />
        </mxCell>
        <mxCell id="NXn6PCg6-Ud2dN9pKlLt-195" value="Id object(id)" style="shape=partialRectangle;overflow=hidden;connectable=0;fillColor=none;top=0;left=0;bottom=0;right=0;align=left;spacingLeft=6;fontStyle=5;" vertex="1" parent="NXn6PCg6-Ud2dN9pKlLt-193">
          <mxGeometry x="30" width="300" height="30" as="geometry" />
        </mxCell>
        <mxCell id="NXn6PCg6-Ud2dN9pKlLt-196" value="" style="shape=partialRectangle;collapsible=0;dropTarget=0;pointerEvents=0;fillColor=none;points=[[0,0.5],[1,0.5]];portConstraint=eastwest;top=0;left=0;right=0;bottom=0;" vertex="1" parent="NXn6PCg6-Ud2dN9pKlLt-192">
          <mxGeometry y="60" width="330" height="30" as="geometry" />
        </mxCell>
        <mxCell id="NXn6PCg6-Ud2dN9pKlLt-197" value="" style="shape=partialRectangle;overflow=hidden;connectable=0;fillColor=none;top=0;left=0;bottom=0;right=0;" vertex="1" parent="NXn6PCg6-Ud2dN9pKlLt-196">
          <mxGeometry width="30" height="30" as="geometry" />
        </mxCell>
        <mxCell id="NXn6PCg6-Ud2dN9pKlLt-198" value="UserCode(string)[unique][query]" style="shape=partialRectangle;overflow=hidden;connectable=0;fillColor=none;top=0;left=0;bottom=0;right=0;align=left;spacingLeft=6;" vertex="1" parent="NXn6PCg6-Ud2dN9pKlLt-196">
          <mxGeometry x="30" width="300" height="30" as="geometry" />
        </mxCell>
        <mxCell id="NXn6PCg6-Ud2dN9pKlLt-199" value="" style="shape=partialRectangle;collapsible=0;dropTarget=0;pointerEvents=0;fillColor=none;points=[[0,0.5],[1,0.5]];portConstraint=eastwest;top=0;left=0;right=0;bottom=0;" vertex="1" parent="NXn6PCg6-Ud2dN9pKlLt-192">
          <mxGeometry y="90" width="330" height="30" as="geometry" />
        </mxCell>
        <mxCell id="NXn6PCg6-Ud2dN9pKlLt-200" value="" style="shape=partialRectangle;overflow=hidden;connectable=0;fillColor=none;top=0;left=0;bottom=0;right=0;" vertex="1" parent="NXn6PCg6-Ud2dN9pKlLt-199">
          <mxGeometry width="30" height="30" as="geometry" />
        </mxCell>
        <mxCell id="NXn6PCg6-Ud2dN9pKlLt-201" value="UserName(string)[query]" style="shape=partialRectangle;overflow=hidden;connectable=0;fillColor=none;top=0;left=0;bottom=0;right=0;align=left;spacingLeft=6;" vertex="1" parent="NXn6PCg6-Ud2dN9pKlLt-199">
          <mxGeometry x="30" width="300" height="30" as="geometry" />
        </mxCell>
        <mxCell id="NXn6PCg6-Ud2dN9pKlLt-260" value="" style="shape=partialRectangle;collapsible=0;dropTarget=0;pointerEvents=0;fillColor=none;points=[[0,0.5],[1,0.5]];portConstraint=eastwest;top=0;left=0;right=0;bottom=0;" vertex="1" parent="NXn6PCg6-Ud2dN9pKlLt-192">
          <mxGeometry y="120" width="330" height="30" as="geometry" />
        </mxCell>
        <mxCell id="NXn6PCg6-Ud2dN9pKlLt-261" value="" style="shape=partialRectangle;overflow=hidden;connectable=0;fillColor=none;top=0;left=0;bottom=0;right=0;" vertex="1" parent="NXn6PCg6-Ud2dN9pKlLt-260">
          <mxGeometry width="30" height="30" as="geometry" />
        </mxCell>
        <mxCell id="NXn6PCg6-Ud2dN9pKlLt-262" value="SecretPassword(string)" style="shape=partialRectangle;overflow=hidden;connectable=0;fillColor=none;top=0;left=0;bottom=0;right=0;align=left;spacingLeft=6;" vertex="1" parent="NXn6PCg6-Ud2dN9pKlLt-260">
          <mxGeometry x="30" width="300" height="30" as="geometry" />
        </mxCell>
        <mxCell id="NXn6PCg6-Ud2dN9pKlLt-202" value="" style="shape=partialRectangle;collapsible=0;dropTarget=0;pointerEvents=0;fillColor=none;points=[[0,0.5],[1,0.5]];portConstraint=eastwest;top=0;left=0;right=0;bottom=0;" vertex="1" parent="NXn6PCg6-Ud2dN9pKlLt-192">
          <mxGeometry y="150" width="330" height="30" as="geometry" />
        </mxCell>
        <mxCell id="NXn6PCg6-Ud2dN9pKlLt-203" value="" style="shape=partialRectangle;overflow=hidden;connectable=0;fillColor=none;top=0;left=0;bottom=0;right=0;" vertex="1" parent="NXn6PCg6-Ud2dN9pKlLt-202">
          <mxGeometry width="30" height="30" as="geometry" />
        </mxCell>
        <mxCell id="NXn6PCg6-Ud2dN9pKlLt-204" value="Phone(string)" style="shape=partialRectangle;overflow=hidden;connectable=0;fillColor=none;top=0;left=0;bottom=0;right=0;align=left;spacingLeft=6;" vertex="1" parent="NXn6PCg6-Ud2dN9pKlLt-202">
          <mxGeometry x="30" width="300" height="30" as="geometry" />
        </mxCell>
        <mxCell id="NXn6PCg6-Ud2dN9pKlLt-205" value="" style="shape=partialRectangle;collapsible=0;dropTarget=0;pointerEvents=0;fillColor=none;points=[[0,0.5],[1,0.5]];portConstraint=eastwest;top=0;left=0;right=0;bottom=0;" vertex="1" parent="NXn6PCg6-Ud2dN9pKlLt-192">
          <mxGeometry y="180" width="330" height="30" as="geometry" />
        </mxCell>
        <mxCell id="NXn6PCg6-Ud2dN9pKlLt-206" value="" style="shape=partialRectangle;overflow=hidden;connectable=0;fillColor=none;top=0;left=0;bottom=0;right=0;" vertex="1" parent="NXn6PCg6-Ud2dN9pKlLt-205">
          <mxGeometry width="30" height="30" as="geometry" />
        </mxCell>
        <mxCell id="NXn6PCg6-Ud2dN9pKlLt-207" value="Email(string)" style="shape=partialRectangle;overflow=hidden;connectable=0;fillColor=none;top=0;left=0;bottom=0;right=0;align=left;spacingLeft=6;" vertex="1" parent="NXn6PCg6-Ud2dN9pKlLt-205">
          <mxGeometry x="30" width="300" height="30" as="geometry" />
        </mxCell>
        <mxCell id="NXn6PCg6-Ud2dN9pKlLt-208" value="" style="shape=partialRectangle;collapsible=0;dropTarget=0;pointerEvents=0;fillColor=none;points=[[0,0.5],[1,0.5]];portConstraint=eastwest;top=0;left=0;right=0;bottom=0;" vertex="1" parent="NXn6PCg6-Ud2dN9pKlLt-192">
          <mxGeometry y="210" width="330" height="30" as="geometry" />
        </mxCell>
        <mxCell id="NXn6PCg6-Ud2dN9pKlLt-209" value="" style="shape=partialRectangle;overflow=hidden;connectable=0;fillColor=none;top=0;left=0;bottom=0;right=0;" vertex="1" parent="NXn6PCg6-Ud2dN9pKlLt-208">
          <mxGeometry width="30" height="30" as="geometry" />
        </mxCell>
        <mxCell id="NXn6PCg6-Ud2dN9pKlLt-210" value="HeadImageToken(string)" style="shape=partialRectangle;overflow=hidden;connectable=0;fillColor=none;top=0;left=0;bottom=0;right=0;align=left;spacingLeft=6;" vertex="1" parent="NXn6PCg6-Ud2dN9pKlLt-208">
          <mxGeometry x="30" width="300" height="30" as="geometry" />
        </mxCell>
        <mxCell id="NXn6PCg6-Ud2dN9pKlLt-211" value="" style="shape=partialRectangle;collapsible=0;dropTarget=0;pointerEvents=0;fillColor=none;points=[[0,0.5],[1,0.5]];portConstraint=eastwest;top=0;left=0;right=0;bottom=0;" vertex="1" parent="NXn6PCg6-Ud2dN9pKlLt-192">
          <mxGeometry y="240" width="330" height="30" as="geometry" />
        </mxCell>
        <mxCell id="NXn6PCg6-Ud2dN9pKlLt-212" value="" style="shape=partialRectangle;overflow=hidden;connectable=0;fillColor=none;top=0;left=0;bottom=0;right=0;" vertex="1" parent="NXn6PCg6-Ud2dN9pKlLt-211">
          <mxGeometry width="30" height="30" as="geometry" />
        </mxCell>
        <mxCell id="NXn6PCg6-Ud2dN9pKlLt-213" value="OrganizationCode(string)" style="shape=partialRectangle;overflow=hidden;connectable=0;fillColor=none;top=0;left=0;bottom=0;right=0;align=left;spacingLeft=6;" vertex="1" parent="NXn6PCg6-Ud2dN9pKlLt-211">
          <mxGeometry x="30" width="300" height="30" as="geometry" />
        </mxCell>
        <mxCell id="NXn6PCg6-Ud2dN9pKlLt-214" value="" style="shape=partialRectangle;collapsible=0;dropTarget=0;pointerEvents=0;fillColor=none;points=[[0,0.5],[1,0.5]];portConstraint=eastwest;top=0;left=0;right=0;bottom=0;" vertex="1" parent="NXn6PCg6-Ud2dN9pKlLt-192">
          <mxGeometry y="270" width="330" height="30" as="geometry" />
        </mxCell>
        <mxCell id="NXn6PCg6-Ud2dN9pKlLt-215" value="" style="shape=partialRectangle;overflow=hidden;connectable=0;fillColor=none;top=0;left=0;bottom=0;right=0;" vertex="1" parent="NXn6PCg6-Ud2dN9pKlLt-214">
          <mxGeometry width="30" height="30" as="geometry" />
        </mxCell>
        <mxCell id="NXn6PCg6-Ud2dN9pKlLt-216" value="AdminsCode(string)" style="shape=partialRectangle;overflow=hidden;connectable=0;fillColor=none;top=0;left=0;bottom=0;right=0;align=left;spacingLeft=6;" vertex="1" parent="NXn6PCg6-Ud2dN9pKlLt-214">
          <mxGeometry x="30" width="300" height="30" as="geometry" />
        </mxCell>
        <mxCell id="NXn6PCg6-Ud2dN9pKlLt-251" value="" style="shape=partialRectangle;collapsible=0;dropTarget=0;pointerEvents=0;fillColor=none;points=[[0,0.5],[1,0.5]];portConstraint=eastwest;top=0;left=0;right=0;bottom=0;" vertex="1" parent="NXn6PCg6-Ud2dN9pKlLt-192">
          <mxGeometry y="300" width="330" height="30" as="geometry" />
        </mxCell>
        <mxCell id="NXn6PCg6-Ud2dN9pKlLt-252" value="" style="shape=partialRectangle;overflow=hidden;connectable=0;fillColor=none;top=0;left=0;bottom=0;right=0;" vertex="1" parent="NXn6PCg6-Ud2dN9pKlLt-251">
          <mxGeometry width="30" height="30" as="geometry" />
        </mxCell>
        <mxCell id="NXn6PCg6-Ud2dN9pKlLt-253" value="AuthorityGroup(string)" style="shape=partialRectangle;overflow=hidden;connectable=0;fillColor=none;top=0;left=0;bottom=0;right=0;align=left;spacingLeft=6;" vertex="1" parent="NXn6PCg6-Ud2dN9pKlLt-251">
          <mxGeometry x="30" width="300" height="30" as="geometry" />
        </mxCell>
        <mxCell id="NXn6PCg6-Ud2dN9pKlLt-224" value="" style="edgeStyle=entityRelationEdgeStyle;fontSize=12;html=1;endArrow=ERoneToMany;" edge="1" parent="1" source="NXn6PCg6-Ud2dN9pKlLt-12" target="NXn6PCg6-Ud2dN9pKlLt-81">
          <mxGeometry width="100" height="100" relative="1" as="geometry">
            <mxPoint x="740" y="1226" as="sourcePoint" />
            <mxPoint x="840" y="1126" as="targetPoint" />
          </mxGeometry>
        </mxCell>
        <mxCell id="NXn6PCg6-Ud2dN9pKlLt-225" value="" style="edgeStyle=entityRelationEdgeStyle;fontSize=12;html=1;endArrow=ERoneToMany;exitX=1;exitY=0.5;exitDx=0;exitDy=0;" edge="1" parent="1" source="NXn6PCg6-Ud2dN9pKlLt-84" target="NXn6PCg6-Ud2dN9pKlLt-177">
          <mxGeometry width="100" height="100" relative="1" as="geometry">
            <mxPoint x="630" y="1286" as="sourcePoint" />
            <mxPoint x="1360" y="1356" as="targetPoint" />
          </mxGeometry>
        </mxCell>
        <mxCell id="NXn6PCg6-Ud2dN9pKlLt-226" value="Authority(权限)" style="shape=table;startSize=30;container=1;collapsible=1;childLayout=tableLayout;fixedRows=1;rowLines=0;fontStyle=1;align=center;resizeLast=1;" vertex="1" parent="1">
          <mxGeometry x="820" y="20" width="330" height="220" as="geometry" />
        </mxCell>
        <mxCell id="NXn6PCg6-Ud2dN9pKlLt-227" value="" style="shape=partialRectangle;collapsible=0;dropTarget=0;pointerEvents=0;fillColor=none;points=[[0,0.5],[1,0.5]];portConstraint=eastwest;top=0;left=0;right=0;bottom=1;" vertex="1" parent="NXn6PCg6-Ud2dN9pKlLt-226">
          <mxGeometry y="30" width="330" height="30" as="geometry" />
        </mxCell>
        <mxCell id="NXn6PCg6-Ud2dN9pKlLt-228" value="PK" style="shape=partialRectangle;overflow=hidden;connectable=0;fillColor=none;top=0;left=0;bottom=0;right=0;fontStyle=1;" vertex="1" parent="NXn6PCg6-Ud2dN9pKlLt-227">
          <mxGeometry width="30" height="30" as="geometry" />
        </mxCell>
        <mxCell id="NXn6PCg6-Ud2dN9pKlLt-229" value="Id object(id)" style="shape=partialRectangle;overflow=hidden;connectable=0;fillColor=none;top=0;left=0;bottom=0;right=0;align=left;spacingLeft=6;fontStyle=5;" vertex="1" parent="NXn6PCg6-Ud2dN9pKlLt-227">
          <mxGeometry x="30" width="300" height="30" as="geometry" />
        </mxCell>
        <mxCell id="NXn6PCg6-Ud2dN9pKlLt-230" value="" style="shape=partialRectangle;collapsible=0;dropTarget=0;pointerEvents=0;fillColor=none;points=[[0,0.5],[1,0.5]];portConstraint=eastwest;top=0;left=0;right=0;bottom=0;" vertex="1" parent="NXn6PCg6-Ud2dN9pKlLt-226">
          <mxGeometry y="60" width="330" height="30" as="geometry" />
        </mxCell>
        <mxCell id="NXn6PCg6-Ud2dN9pKlLt-231" value="" style="shape=partialRectangle;overflow=hidden;connectable=0;fillColor=none;top=0;left=0;bottom=0;right=0;" vertex="1" parent="NXn6PCg6-Ud2dN9pKlLt-230">
          <mxGeometry width="30" height="30" as="geometry" />
        </mxCell>
        <mxCell id="NXn6PCg6-Ud2dN9pKlLt-232" value="AuthorityType(int)" style="shape=partialRectangle;overflow=hidden;connectable=0;fillColor=none;top=0;left=0;bottom=0;right=0;align=left;spacingLeft=6;" vertex="1" parent="NXn6PCg6-Ud2dN9pKlLt-230">
          <mxGeometry x="30" width="300" height="30" as="geometry" />
        </mxCell>
        <mxCell id="NXn6PCg6-Ud2dN9pKlLt-248" value="" style="shape=partialRectangle;collapsible=0;dropTarget=0;pointerEvents=0;fillColor=none;points=[[0,0.5],[1,0.5]];portConstraint=eastwest;top=0;left=0;right=0;bottom=0;" vertex="1" parent="NXn6PCg6-Ud2dN9pKlLt-226">
          <mxGeometry y="90" width="330" height="30" as="geometry" />
        </mxCell>
        <mxCell id="NXn6PCg6-Ud2dN9pKlLt-249" value="" style="shape=partialRectangle;overflow=hidden;connectable=0;fillColor=none;top=0;left=0;bottom=0;right=0;" vertex="1" parent="NXn6PCg6-Ud2dN9pKlLt-248">
          <mxGeometry width="30" height="30" as="geometry" />
        </mxCell>
        <mxCell id="NXn6PCg6-Ud2dN9pKlLt-250" value="AuthorityGroup(string)[relevance]" style="shape=partialRectangle;overflow=hidden;connectable=0;fillColor=none;top=0;left=0;bottom=0;right=0;align=left;spacingLeft=6;" vertex="1" parent="NXn6PCg6-Ud2dN9pKlLt-248">
          <mxGeometry x="30" width="300" height="30" as="geometry" />
        </mxCell>
        <mxCell id="NXn6PCg6-Ud2dN9pKlLt-233" value="" style="shape=partialRectangle;collapsible=0;dropTarget=0;pointerEvents=0;fillColor=none;points=[[0,0.5],[1,0.5]];portConstraint=eastwest;top=0;left=0;right=0;bottom=0;" vertex="1" parent="NXn6PCg6-Ud2dN9pKlLt-226">
          <mxGeometry y="120" width="330" height="30" as="geometry" />
        </mxCell>
        <mxCell id="NXn6PCg6-Ud2dN9pKlLt-234" value="" style="shape=partialRectangle;overflow=hidden;connectable=0;fillColor=none;top=0;left=0;bottom=0;right=0;" vertex="1" parent="NXn6PCg6-Ud2dN9pKlLt-233">
          <mxGeometry width="30" height="30" as="geometry" />
        </mxCell>
        <mxCell id="NXn6PCg6-Ud2dN9pKlLt-235" value="AuthorityCode(string)[unique][relevance]" style="shape=partialRectangle;overflow=hidden;connectable=0;fillColor=none;top=0;left=0;bottom=0;right=0;align=left;spacingLeft=6;" vertex="1" parent="NXn6PCg6-Ud2dN9pKlLt-233">
          <mxGeometry x="30" width="300" height="30" as="geometry" />
        </mxCell>
        <mxCell id="NXn6PCg6-Ud2dN9pKlLt-239" value="" style="shape=partialRectangle;collapsible=0;dropTarget=0;pointerEvents=0;fillColor=none;points=[[0,0.5],[1,0.5]];portConstraint=eastwest;top=0;left=0;right=0;bottom=0;" vertex="1" parent="NXn6PCg6-Ud2dN9pKlLt-226">
          <mxGeometry y="150" width="330" height="30" as="geometry" />
        </mxCell>
        <mxCell id="NXn6PCg6-Ud2dN9pKlLt-240" value="" style="shape=partialRectangle;overflow=hidden;connectable=0;fillColor=none;top=0;left=0;bottom=0;right=0;" vertex="1" parent="NXn6PCg6-Ud2dN9pKlLt-239">
          <mxGeometry width="30" height="30" as="geometry" />
        </mxCell>
        <mxCell id="NXn6PCg6-Ud2dN9pKlLt-241" value="LicenseKey" style="shape=partialRectangle;overflow=hidden;connectable=0;fillColor=none;top=0;left=0;bottom=0;right=0;align=left;spacingLeft=6;" vertex="1" parent="NXn6PCg6-Ud2dN9pKlLt-239">
          <mxGeometry x="30" width="300" height="30" as="geometry" />
        </mxCell>
        <mxCell id="NXn6PCg6-Ud2dN9pKlLt-242" value="" style="shape=partialRectangle;collapsible=0;dropTarget=0;pointerEvents=0;fillColor=none;points=[[0,0.5],[1,0.5]];portConstraint=eastwest;top=0;left=0;right=0;bottom=0;" vertex="1" parent="NXn6PCg6-Ud2dN9pKlLt-226">
          <mxGeometry y="180" width="330" height="30" as="geometry" />
        </mxCell>
        <mxCell id="NXn6PCg6-Ud2dN9pKlLt-243" value="" style="shape=partialRectangle;overflow=hidden;connectable=0;fillColor=none;top=0;left=0;bottom=0;right=0;" vertex="1" parent="NXn6PCg6-Ud2dN9pKlLt-242">
          <mxGeometry width="30" height="30" as="geometry" />
        </mxCell>
        <mxCell id="NXn6PCg6-Ud2dN9pKlLt-244" value="Features[](FeatureCode)" style="shape=partialRectangle;overflow=hidden;connectable=0;fillColor=none;top=0;left=0;bottom=0;right=0;align=left;spacingLeft=6;" vertex="1" parent="NXn6PCg6-Ud2dN9pKlLt-242">
          <mxGeometry x="30" width="300" height="30" as="geometry" />
        </mxCell>
      </root>
    </mxGraphModel>
  </diagram>
</mxfile>
